<?xml version="1.0" standalone="no"?>
<!DOCTYPE svg PUBLIC "-//W3C//DTD SVG 20010904//EN"
 "http://www.w3.org/TR/2001/REC-SVG-20010904/DTD/svg10.dtd">
<svg version="1.0" xmlns="http://www.w3.org/2000/svg"
 width="300.000000pt" height="299.000000pt" viewBox="0 0 300.000000 299.000000"
 preserveAspectRatio="xMidYMid meet">
<metadata>
Created by potrace 1.10, written by Peter Selinger 2001-2011
</metadata>
<g transform="translate(0.000000,299.000000) scale(0.100000,-0.100000)"
fill="#000000" stroke="none">
<path d="M274 2714 c-151 -153 -274 -282 -274 -287 0 -6 74 -83 165 -172 91
-89 165 -167 165 -174 0 -6 -11 -33 -24 -59 -13 -26 -33 -76 -46 -112 -12 -36
-26 -74 -31 -85 -5 -11 -18 -66 -29 -122 -102 -512 74 -1027 465 -1358 233
-197 448 -288 795 -335 156 -21 418 15 613 84 72 26 54 26 277 -3 71 -10 549
-75 618 -85 17 -3 32 -4 32 -2 0 1 -5 28 -10 59 -6 31 -15 89 -20 129 -14 118
-49 368 -59 428 -37 223 -37 224 -3 324 190 551 29 1170 -401 1534 -441 373
-1020 453 -1532 211 l-67 -31 -167 166 c-93 91 -174 166 -180 166 -7 0 -136
-124 -287 -276z m451 46 c88 -88 168 -160 178 -160 10 0 43 13 75 29 98 49
183 81 292 108 96 24 122 27 305 27 226 0 317 -14 480 -77 465 -179 779 -566
866 -1067 6 -30 10 -124 9 -209 -1 -221 -35 -384 -121 -567 -151 -324 -439
-588 -764 -701 -189 -66 -248 -76 -440 -77 -200 -1 -277 9 -430 56 -133 41
-225 85 -348 168 -353 238 -564 600 -597 1030 -10 130 -9 159 9 281 22 149 69
306 126 419 19 38 35 73 35 76 0 4 -74 80 -165 170 l-164 162 242 245 c133
135 244 245 247 246 3 0 77 -71 165 -159z"/>
<path d="M418 2572 l-147 -147 364 -365 365 -365 67 70 c37 39 103 107 146
152 l80 83 -179 176 c-98 97 -262 259 -364 360 l-185 184 -147 -148z"/>
<path d="M1400 2595 c-92 -15 -212 -47 -264 -70 l-39 -17 74 -74 75 -74 54 18
c130 45 359 52 495 17 33 -9 78 -20 100 -26 55 -14 213 -93 250 -125 17 -14
41 -34 55 -45 25 -19 25 -19 -20 -3 -26 10 -78 17 -126 17 -69 1 -89 -3 -140
-28 -87 -43 -156 -116 -182 -195 -12 -35 -22 -86 -22 -113 l0 -49 -42 8 c-24
4 -79 7 -122 5 -150 -4 -286 -93 -356 -234 -16 -33 -30 -70 -30 -83 0 -13 -4
-26 -10 -29 -13 -8 -13 -91 1 -157 35 -167 165 -306 313 -333 20 -4 39 -11 42
-16 7 -12 68 -11 140 2 138 25 256 118 318 249 29 60 31 73 31 175 l0 110 78
2 c93 2 157 28 226 95 87 84 121 221 87 348 l-14 55 26 -32 c36 -42 117 -204
138 -273 63 -209 59 -437 -10 -638 -24 -70 -94 -208 -119 -234 -7 -7 -30 -37
-52 -66 -119 -160 -379 -318 -570 -348 -22 -3 -43 -8 -46 -10 -19 -11 -216
-15 -276 -5 -178 31 -236 50 -360 116 -258 137 -458 412 -510 704 -20 113 -12
314 17 426 l20 80 -73 73 -74 74 -17 -49 c-75 -215 -94 -387 -65 -608 13 -97
68 -270 119 -368 147 -287 424 -512 740 -601 79 -22 248 -46 327 -46 386 0
771 210 985 535 107 163 160 297 188 477 19 120 7 370 -23 483 -57 212 -154
381 -310 538 -188 189 -415 304 -672 342 -115 16 -260 17 -355 0z m772 -425
c62 -23 144 -101 179 -170 18 -36 23 -62 23 -130 1 -79 -2 -90 -34 -149 -38
-72 -103 -129 -175 -156 -65 -25 -183 -17 -250 17 -53 27 -123 95 -148 144
-23 45 -40 143 -33 188 19 113 112 225 221 264 51 18 159 14 217 -8z"/>
</g>
</svg>
